what.ufo
<glyph name="comma" format="1">
  <advance width="500"/>
  <unicode hex="002C"/>
  <outline>
    <contour>
      <point x="195" y="0" type="line"/>
      <point x="295" y="0" type="line"/>
      <point x="295" y="100" type="line"/>
      <point x="195" y="100" type="line"/>
    </contour>
    <contour>
      <point x="122" y="-182" type="curve"/>
      <point x="150" y="-204" type="line"/>
      <point x="188" y="-147"/>
      <point x="226" y="-91"/>
      <point x="295" y="0" type="curve"/>
      <point x="257" y="0" type="line"/>
      <point x="202" y="-90"/>
      <point x="164" y="-134"/>
    </contour>
  </outline>
</glyph>
<glyph name="hyphen" format="1">
  <advance width="500"/>
  <unicode hex="002D"/>
  <outline>
    <contour>
      <point x="379" y="280" type="line"/>
      <point x="262" y="273"/>
      <point x="244" y="275"/>
      <point x="120" y="281" type="curve"/>
      <point x="118" y="237" type="line"/>
      <point x="241" y="248"/>
      <point x="263" y="252"/>
      <point x="382" y="244" type="curve"/>
    </contour>
    <contour>
      <point x="250.0" y="540.0" type="move" name="_top"/>
    </contour>
  </outline>
</glyph>
<glyph name="colon" format="1">
  <advance width="500"/>
  <unicode hex="003A"/>
  <outline>
    <contour>
      <point x="95" y="0" type="line"/>
      <point x="195" y="0" type="line"/>
      <point x="195" y="100" type="line"/>
      <point x="95" y="100" type="line"/>
    </contour>
    <contour>
      <point x="295" y="400" type="line"/>
      <point x="395" y="400" type="line"/>
      <point x="395" y="500" type="line"/>
      <point x="295" y="500" type="line"/>
    </contour>
  </outline>
</glyph>
<glyph name="semicolon" format="1">
  <advance width="500"/>
  <unicode hex="003B"/>
  <outline>
    <contour>
      <point x="295" y="400" type="line"/>
      <point x="395" y="400" type="line"/>
      <point x="395" y="500" type="line"/>
      <point x="295" y="500" type="line"/>
    </contour>
    <contour>
      <point x="95" y="0" type="line"/>
      <point x="195" y="0" type="line"/>
      <point x="195" y="100" type="line"/>
      <point x="95" y="100" type="line"/>
    </contour>
    <contour>
      <point x="22" y="-182" type="curve"/>
      <point x="50" y="-204" type="line"/>
      <point x="88" y="-147"/>
      <point x="126" y="-91"/>
      <point x="195" y="0" type="curve"/>
      <point x="157" y="0" type="line"/>
      <point x="102" y="-90"/>
      <point x="64" y="-134"/>
    </contour>
  </outline>
</glyph>
<glyph name="grave" format="1">
  <advance width="500"/>
  <unicode hex="0060"/>
  <outline>
    <contour>
      <point x="362" y="637" type="line"/>
      <point x="270" y="765"/>
      <point x="262" y="781"/>
      <point x="177" y="921" type="curve"/>
      <point x="139" y="899" type="line"/>
      <point x="238" y="768"/>
      <point x="253" y="752"/>
      <point x="334" y="615" type="curve"/>
    </contour>
    <contour>
      <point x="250.0" y="540" type="move" name="_top"/>
    </contour>
  </outline>
</glyph>
<glyph name="a" format="1">
  <advance width="500"/>
  <unicode hex="0061"/>
  <outline>
    <contour>
      <point x="374" y="171"/>
      <point x="414" y="224"/>
      <point x="431" y="255" type="curve" smooth="yes"/>
      <point x="462" y="313"/>
      <point x="482" y="361"/>
      <point x="482" y="404" type="curve" smooth="yes"/>
      <point x="482" y="472"/>
      <point x="428" y="510"/>
      <point x="348" y="510" type="curve" smooth="yes"/>
      <point x="251" y="510"/>
      <point x="162" y="446"/>
      <point x="96" y="347" type="curve"/>
      <point x="124" y="329" type="line"/>
      <point x="180" y="420"/>
      <point x="250" y="440"/>
      <point x="310" y="440" type="curve" smooth="yes"/>
      <point x="366" y="440"/>
      <point x="414" y="412"/>
      <point x="414" y="356" type="curve" smooth="yes"/>
      <point x="414" y="236"/>
      <point x="238" y="60"/>
      <point x="122" y="60" type="curve" smooth="yes"/>
      <point x="92" y="60"/>
      <point x="70" y="72"/>
      <point x="70" y="98" type="curve" smooth="yes"/>
      <point x="70" y="152"/>
      <point x="152" y="206"/>
      <point x="301" y="235" type="curve"/>
      <point x="293" y="267" type="line"/>
      <point x="122" y="228"/>
      <point x="-2" y="179"/>
      <point x="-2" y="69" type="curve" smooth="yes"/>
      <point x="-2" y="15"/>
      <point x="40" y="-10"/>
      <point x="94" y="-10" type="curve" smooth="yes"/>
      <point x="186" y="-10"/>
      <point x="268" y="66"/>
      <point x="322" y="132" type="curve"/>
      <point x="332" y="132" type="line"/>
      <point x="352" y="0" type="line"/>
      <point x="422" y="0" type="line"/>
      <point x="396" y="54"/>
      <point x="374" y="110"/>
      <point x="374" y="154" type="curve" smooth="yes"/>
    </contour>
    <contour>
      <point x="430.0" y="540.0" type="move" name="top"/>
    </contour>
  </outline>
</glyph>
<glyph name="b" format="1">
  <advance width="500"/>
  <unicode hex="0062"/>
  <outline>
    <contour>
      <point x="23" y="44" type="line"/>
      <point x="33" y="14"/>
      <point x="71" y="-10"/>
      <point x="110" y="-10" type="curve"/>
      <point x="310" y="-10"/>
      <point x="502" y="260"/>
      <point x="502" y="404" type="curve" smooth="yes"/>
      <point x="502" y="463"/>
      <point x="474" y="510"/>
      <point x="414" y="510" type="curve" smooth="yes"/>
      <point x="340" y="510"/>
      <point x="244" y="444"/>
      <point x="167" y="314" type="curve"/>
      <point x="157" y="314" type="line"/>
      <point x="352" y="750" type="line"/>
      <point x="282" y="750" type="line"/>
      <point x="164" y="422"/>
      <point x="66" y="176"/>
      <point x="-53" y="-70" type="curve"/>
      <point x="-13" y="-80" type="line"/>
      <point x="110" y="171" type="line" smooth="yes"/>
      <point x="200" y="354"/>
      <point x="312" y="440"/>
      <point x="372" y="440" type="curve" smooth="yes"/>
      <point x="414" y="440"/>
      <point x="434" y="407"/>
      <point x="434" y="358" type="curve" smooth="yes"/>
      <point x="434" y="206"/>
      <point x="262" y="60"/>
      <point x="140" y="60" type="curve"/>
      <point x="94" y="60"/>
      <point x="78" y="74"/>
      <point x="72" y="94" type="curve"/>
    </contour>
  </outline>
</glyph>
<glyph name="c" format="1">
  <advance width="500"/>
  <unicode hex="0063"/>
  <outline>
    <contour>
      <point x="492" y="403" type="line"/>
      <point x="492" y="485"/>
      <point x="439" y="510"/>
      <point x="386" y="510" type="curve" smooth="yes"/>
      <point x="214" y="510"/>
      <point x="28" y="238"/>
      <point x="28" y="100" type="curve" smooth="yes"/>
      <point x="28" y="16"/>
      <point x="72" y="-10"/>
      <point x="132" y="-10" type="curve" smooth="yes"/>
      <point x="242" y="-10"/>
      <point x="347" y="81"/>
      <point x="474" y="223" type="curve"/>
      <point x="446" y="245" type="line"/>
      <point x="328" y="104"/>
      <point x="260" y="60"/>
      <point x="188" y="60" type="curve" smooth="yes"/>
      <point x="136" y="60"/>
      <point x="96" y="82"/>
      <point x="96" y="146" type="curve" smooth="yes"/>
      <point x="96" y="266"/>
      <point x="235" y="440"/>
      <point x="352" y="440" type="curve" smooth="yes"/>
      <point x="402" y="440"/>
      <point x="426" y="412"/>
      <point x="432" y="367" type="curve"/>
    </contour>
  </outline>
</glyph>
<glyph name="d" format="1">
  <advance width="500"/>
  <unicode hex="0064"/>
  <outline>
    <contour>
      <point x="258" y="38" type="curve" smooth="yes"/>
      <point x="258" y="9"/>
      <point x="270" y="-10"/>
      <point x="302" y="-10" type="curve" smooth="yes"/>
      <point x="336" y="-10"/>
      <point x="370" y="20"/>
      <point x="396" y="56" type="curve" smooth="yes"/>
      <point x="476" y="164" type="line"/>
      <point x="448" y="184" type="line"/>
      <point x="390" y="100" type="line" smooth="yes"/>
      <point x="365" y="64"/>
      <point x="352" y="58"/>
      <point x="338" y="58" type="curve"/>
      <point x="324" y="58"/>
      <point x="318" y="70"/>
      <point x="318" y="86" type="curve" smooth="yes"/>
      <point x="318" y="134"/>
      <point x="374" y="258"/>
      <point x="432" y="390" type="curve" smooth="yes"/>
      <point x="589" y="750" type="line"/>
      <point x="519" y="750" type="line"/>
      <point x="478" y="636"/>
      <point x="429" y="504"/>
      <point x="358" y="324" type="curve" smooth="yes"/>
      <point x="307" y="196"/>
      <point x="202" y="60"/>
      <point x="128" y="60" type="curve" smooth="yes"/>
      <point x="92" y="60"/>
      <point x="66" y="83"/>
      <point x="66" y="146" type="curve" smooth="yes"/>
      <point x="66" y="308"/>
      <point x="248" y="440"/>
      <point x="358" y="440" type="curve" smooth="yes"/>
      <point x="403" y="440"/>
      <point x="418" y="430"/>
      <point x="426" y="410" type="curve"/>
      <point x="447" y="450" type="line"/>
      <point x="447" y="469"/>
      <point x="462" y="510"/>
      <point x="382" y="510" type="curve" smooth="yes"/>
      <point x="214" y="510"/>
      <point x="-2" y="261"/>
      <point x="-2" y="96" type="curve" smooth="yes"/>
      <point x="-2" y="34"/>
      <point x="28" y="-10"/>
      <point x="86" y="-10" type="curve" smooth="yes"/>
      <point x="158" y="-10"/>
      <point x="227" y="46"/>
      <point x="292" y="155" type="curve"/>
      <point x="302" y="155" type="line"/>
      <point x="276" y="106"/>
      <point x="258" y="73"/>
    </contour>
  </outline>
</glyph>
<glyph name="e" format="1">
  <advance width="500"/>
  <unicode hex="0065"/>
  <outline>
    <contour>
      <point x="482" y="432" type="curve" smooth="yes"/>
      <point x="482" y="484"/>
      <point x="444" y="510"/>
      <point x="384" y="510" type="curve" smooth="yes"/>
      <point x="210" y="510"/>
      <point x="18" y="244"/>
      <point x="18" y="96" type="curve" smooth="yes"/>
      <point x="18" y="28"/>
      <point x="52" y="-10"/>
      <point x="122" y="-10" type="curve" smooth="yes"/>
      <point x="211" y="-10"/>
      <point x="303" y="42"/>
      <point x="464" y="223" type="curve"/>
      <point x="436" y="245" type="line"/>
      <point x="298" y="80"/>
      <point x="236" y="60"/>
      <point x="172" y="60" type="curve" smooth="yes"/>
      <point x="122" y="60"/>
      <point x="86" y="88"/>
      <point x="86" y="144" type="curve" smooth="yes"/>
      <point x="86" y="264"/>
      <point x="224" y="440"/>
      <point x="342" y="440" type="curve" smooth="yes"/>
      <point x="370" y="440"/>
      <point x="404" y="428"/>
      <point x="404" y="392" type="curve" smooth="yes"/>
      <point x="404" y="338"/>
      <point x="249" y="283"/>
      <point x="110" y="244" type="curve"/>
      <point x="122" y="212" type="line"/>
      <point x="277" y="262"/>
      <point x="482" y="320"/>
    </contour>
    <contour>
      <point x="410" y="540" type="move" name="top"/>
    </contour>
  </outline>
</glyph>
<glyph name="f" format="1">
  <advance width="500"/>
  <unicode hex="0066"/>
  <outline>
    <contour>
      <point x="62" y="74" type="curve" smooth="yes"/>
      <point x="34" y="9"/>
      <point x="-48" y="-157"/>
      <point x="-105" y="-250" type="curve"/>
      <point x="-35" y="-250" type="line"/>
      <point x="316" y="558" type="line" smooth="yes"/>
      <point x="355" y="647"/>
      <point x="392" y="690"/>
      <point x="448" y="690" type="curve" smooth="yes"/>
      <point x="485" y="690"/>
      <point x="514" y="671"/>
      <point x="514" y="626" type="curve" smooth="yes"/>
      <point x="514" y="528"/>
      <point x="308" y="373"/>
      <point x="258" y="330" type="curve" smooth="yes"/>
      <point x="188" y="270" type="line"/>
      <point x="216" y="248" type="line"/>
      <point x="275" y="302" type="line" smooth="yes"/>
      <point x="370" y="389"/>
      <point x="584" y="535"/>
      <point x="584" y="666" type="curve" smooth="yes"/>
      <point x="584" y="714"/>
      <point x="546" y="760"/>
      <point x="468" y="760" type="curve" smooth="yes"/>
      <point x="372" y="760"/>
      <point x="315" y="712"/>
      <point x="260" y="560" type="curve" smooth="yes"/>
      <point x="210" y="422"/>
      <point x="201" y="396"/>
    </contour>
    <contour>
      <point x="-37" y="200" type="curve"/>
      <point x="-37" y="161" type="line"/>
      <point x="476" y="161" type="line"/>
      <point x="476" y="233" type="line"/>
      <point x="319" y="197"/>
      <point x="95" y="195"/>
    </contour>
  </outline>
</glyph>
<glyph name="g" format="1">
  <advance width="500"/>
  <unicode hex="0067"/>
  <outline>
    <contour>
      <point x="252" y="-58" type="line" smooth="yes"/>
      <point x="209" y="-155"/>
      <point x="158" y="-196"/>
      <point x="100" y="-196" type="curve" smooth="yes"/>
      <point x="65" y="-196"/>
      <point x="36" y="-177"/>
      <point x="36" y="-142" type="curve" smooth="yes"/>
      <point x="36" y="-112"/>
      <point x="47" y="-87"/>
      <point x="70" y="-60" type="curve" smooth="yes"/>
      <point x="98" y="-28" type="line"/>
      <point x="70" y="-8" type="line"/>
      <point x="49" y="-38" type="line" smooth="yes"/>
      <point x="5" y="-100"/>
      <point x="-18" y="-129"/>
      <point x="-18" y="-178" type="curve" smooth="yes"/>
      <point x="-18" y="-234"/>
      <point x="32" y="-260"/>
      <point x="86" y="-260" type="curve" smooth="yes"/>
      <point x="168" y="-260"/>
      <point x="248" y="-209"/>
      <point x="306" y="-58" type="curve" smooth="yes"/>
      <point x="432" y="268"/>
      <point x="494" y="414"/>
      <point x="578" y="590" type="curve"/>
      <point x="538" y="600" type="line"/>
      <point x="500" y="522" type="line" smooth="yes"/>
      <point x="420" y="358"/>
      <point x="296" y="100"/>
      <point x="178" y="100" type="curve" smooth="yes"/>
      <point x="134" y="100"/>
      <point x="114" y="132"/>
      <point x="114" y="172" type="curve" smooth="yes"/>
      <point x="114" y="324"/>
      <point x="266" y="440"/>
      <point x="392" y="440" type="curve"/>
      <point x="426" y="440"/>
      <point x="466" y="431"/>
      <point x="474" y="410" type="curve"/>
      <point x="495" y="477" type="line"/>
      <point x="486" y="498"/>
      <point x="451" y="510"/>
      <point x="408" y="510" type="curve"/>
      <point x="234" y="510"/>
      <point x="46" y="296"/>
      <point x="46" y="130" type="curve" smooth="yes"/>
      <point x="46" y="75"/>
      <point x="74" y="30"/>
      <point x="138" y="30" type="curve" smooth="yes"/>
      <point x="232" y="30"/>
      <point x="314" y="136"/>
      <point x="372" y="232" type="curve"/>
      <point x="382" y="232" type="line"/>
    </contour>
  </outline>
</glyph>
<glyph name="h" format="1">
  <advance width="500"/>
  <unicode hex="0068"/>
  <outline>
    <contour>
      <point x="120" y="164" type="line" smooth="yes"/>
      <point x="226" y="350"/>
      <point x="332" y="440"/>
      <point x="378" y="440" type="curve" smooth="yes"/>
      <point x="388" y="440"/>
      <point x="396" y="437"/>
      <point x="396" y="416" type="curve" smooth="yes"/>
      <point x="396" y="384"/>
      <point x="378" y="349"/>
      <point x="338" y="266" type="curve" smooth="yes"/>
      <point x="264" y="114" type="line" smooth="yes"/>
      <point x="252" y="90"/>
      <point x="246" y="65"/>
      <point x="246" y="45" type="curve" smooth="yes"/>
      <point x="246" y="10"/>
      <point x="266" y="-10"/>
      <point x="296" y="-10" type="curve" smooth="yes"/>
      <point x="330" y="-10"/>
      <point x="363" y="14"/>
      <point x="396" y="60" type="curve" smooth="yes"/>
      <point x="472" y="164" type="line"/>
      <point x="444" y="184" type="line"/>
      <point x="386" y="100" type="line" smooth="yes"/>
      <point x="373" y="81"/>
      <point x="356" y="58"/>
      <point x="336" y="58" type="curve" smooth="yes"/>
      <point x="320" y="58"/>
      <point x="312" y="70"/>
      <point x="312" y="84" type="curve" smooth="yes"/>
      <point x="312" y="102"/>
      <point x="317" y="118"/>
      <point x="328" y="138" type="curve" smooth="yes"/>
      <point x="406" y="276" type="line" smooth="yes"/>
      <point x="463" y="376"/>
      <point x="474" y="415"/>
      <point x="474" y="458" type="curve" smooth="yes"/>
      <point x="474" y="490"/>
      <point x="453" y="510"/>
      <point x="424" y="510" type="curve" smooth="yes"/>
      <point x="320" y="510"/>
      <point x="210" y="372"/>
      <point x="106" y="206" type="curve"/>
      <point x="96" y="206" type="line"/>
      <point x="332" y="750" type="line"/>
      <point x="262" y="750" type="line"/>
      <point x="144" y="422"/>
      <point x="45" y="176"/>
      <point x="-43" y="0" type="curve"/>
      <point x="27" y="0" type="line"/>
    </contour>
  </outline>
</glyph>
<glyph name="i" format="1">
  <advance width="500"/>
  <unicode hex="0069"/>
  <outline>
    <contour>
      <point x="380" y="650" type="line"/>
      <point x="480" y="650" type="line"/>
      <point x="480" y="750" type="line"/>
      <point x="380" y="750" type="line"/>
    </contour>
    <contour>
      <point x="256" y="298" type="curve" smooth="yes"/>
      <point x="192" y="180" type="line" smooth="yes"/>
      <point x="167" y="133"/>
      <point x="152" y="99"/>
      <point x="152" y="62" type="curve" smooth="yes"/>
      <point x="152" y="14"/>
      <point x="190" y="-10"/>
      <point x="238" y="-10" type="curve" smooth="yes"/>
      <point x="304" y="-10"/>
      <point x="341" y="23"/>
      <point x="386" y="80" type="curve" smooth="yes"/>
      <point x="500" y="224" type="line"/>
      <point x="472" y="244" type="line"/>
      <point x="389" y="132" type="line" smooth="yes"/>
      <point x="348" y="76"/>
      <point x="318" y="54"/>
      <point x="274" y="54" type="curve" smooth="yes"/>
      <point x="240" y="54"/>
      <point x="222" y="70"/>
      <point x="222" y="96" type="curve" smooth="yes"/>
      <point x="222" y="129"/>
      <point x="234" y="157"/>
      <point x="256" y="202" type="curve" smooth="yes"/>
      <point x="314" y="320" type="line" smooth="yes"/>
      <point x="340" y="372"/>
      <point x="354" y="402"/>
      <point x="354" y="438" type="curve" smooth="yes"/>
      <point x="354" y="484"/>
      <point x="322" y="510"/>
      <point x="268" y="510" type="curve" smooth="yes"/>
      <point x="202" y="510"/>
      <point x="165" y="477"/>
      <point x="120" y="420" type="curve" smooth="yes"/>
      <point x="6" y="276" type="line"/>
      <point x="34" y="256" type="line"/>
      <point x="115" y="365" type="line" smooth="yes"/>
      <point x="157" y="421"/>
      <point x="190" y="446"/>
      <point x="234" y="446" type="curve" smooth="yes"/>
      <point x="268" y="446"/>
      <point x="284" y="424"/>
      <point x="284" y="390" type="curve" smooth="yes"/>
      <point x="284" y="367"/>
      <point x="276" y="335"/>
    </contour>
  </outline>
</glyph>
<glyph name="j" format="1">
  <advance width="500"/>
  <unicode hex="006A"/>
  <outline>
    <contour>
      <point x="62" y="80" type="line"/>
      <point x="79" y="87" type="line" smooth="yes"/>
      <point x="218" y="144"/>
      <point x="318" y="219"/>
      <point x="385" y="329" type="curve"/>
      <point x="391" y="329" type="line"/>
      <point x="146" y="-250" type="line"/>
      <point x="216" y="-250" type="line"/>
      <point x="334" y="88"/>
      <point x="431" y="324"/>
      <point x="518" y="500" type="curve"/>
      <point x="448" y="500" type="line"/>
      <point x="438" y="477" type="line" smooth="yes"/>
      <point x="366" y="311"/>
      <point x="238" y="225"/>
      <point x="116" y="176" type="curve" smooth="yes"/>
      <point x="26" y="140" type="line"/>
    </contour>
    <contour>
      <point x="500" y="650" type="line"/>
      <point x="600" y="650" type="line"/>
      <point x="600" y="750" type="line"/>
      <point x="500" y="750" type="line"/>
    </contour>
  </outline>
</glyph>
<glyph name="k" format="1">
  <advance width="500"/>
  <unicode hex="006B"/>
  <outline>
    <contour>
      <point x="-30" y="0" type="curve"/>
      <point x="16" y="0" type="line"/>
      <point x="84" y="175" type="line"/>
      <point x="94" y="175" type="line"/>
      <point x="65" y="41"/>
      <point x="100" y="-10"/>
      <point x="174" y="-10" type="curve" smooth="yes"/>
      <point x="253" y="-10"/>
      <point x="305" y="42"/>
      <point x="466" y="223" type="curve"/>
      <point x="438" y="245" type="line"/>
      <point x="310" y="90"/>
      <point x="260" y="60"/>
      <point x="196" y="60" type="curve" smooth="yes"/>
      <point x="135" y="60"/>
      <point x="116" y="91"/>
      <point x="116" y="148" type="curve"/>
      <point x="116" y="285"/>
      <point x="288" y="440"/>
      <point x="364" y="440" type="curve"/>
      <point x="386" y="440"/>
      <point x="406" y="432"/>
      <point x="406" y="402" type="curve" smooth="yes"/>
      <point x="406" y="336"/>
      <point x="251" y="283"/>
      <point x="142" y="254" type="curve"/>
      <point x="154" y="222" type="line"/>
      <point x="279" y="262"/>
      <point x="484" y="320"/>
      <point x="484" y="432" type="curve" smooth="yes"/>
      <point x="484" y="484"/>
      <point x="446" y="510"/>
      <point x="396" y="510" type="curve" smooth="yes"/>
      <point x="327" y="510"/>
      <point x="234" y="444"/>
      <point x="157" y="314" type="curve"/>
      <point x="147" y="314" type="line"/>
      <point x="342" y="750" type="line"/>
      <point x="272" y="750" type="line"/>
      <point x="154" y="422"/>
      <point x="56" y="176"/>
    </contour>
    <contour>
      <point x="402" y="540" type="move" name="top"/>
    </contour>
  </outline>
</glyph>
<glyph name="l" format="1">
  <advance width="500"/>
  <unicode hex="006C"/>
  <outline>
    <contour>
      <point x="91" y="234" type="curve" smooth="yes"/>
      <point x="63" y="168"/>
      <point x="46" y="124"/>
      <point x="46" y="74" type="curve" smooth="yes"/>
      <point x="46" y="26"/>
      <point x="70" y="-10"/>
      <point x="130" y="-10" type="curve" smooth="yes"/>
      <point x="190" y="-10"/>
      <point x="249" y="37"/>
      <point x="324" y="114" type="curve" smooth="yes"/>
      <point x="489" y="282" type="line"/>
      <point x="461" y="304" type="line"/>
      <point x="312" y="146" type="line" smooth="yes"/>
      <point x="262" y="93"/>
      <point x="215" y="54"/>
      <point x="164" y="54" type="curve" smooth="yes"/>
      <point x="128" y="54"/>
      <point x="108" y="76"/>
      <point x="108" y="120" type="curve" smooth="yes"/>
      <point x="108" y="156"/>
      <point x="120" y="206"/>
      <point x="163" y="303" type="curve" smooth="yes"/>
      <point x="276" y="558" type="line" smooth="yes"/>
      <point x="315" y="647"/>
      <point x="352" y="690"/>
      <point x="408" y="690" type="curve" smooth="yes"/>
      <point x="445" y="690"/>
      <point x="474" y="671"/>
      <point x="474" y="626" type="curve" smooth="yes"/>
      <point x="474" y="528"/>
      <point x="268" y="373"/>
      <point x="218" y="330" type="curve" smooth="yes"/>
      <point x="148" y="270" type="line"/>
      <point x="176" y="248" type="line"/>
      <point x="235" y="302" type="line" smooth="yes"/>
      <point x="330" y="389"/>
      <point x="544" y="535"/>
      <point x="544" y="666" type="curve" smooth="yes"/>
      <point x="544" y="714"/>
      <point x="504" y="760"/>
      <point x="428" y="760" type="curve" smooth="yes"/>
      <point x="334" y="760"/>
      <point x="275" y="712"/>
      <point x="220" y="560" type="curve" smooth="yes"/>
      <point x="170" y="422"/>
      <point x="159" y="394"/>
    </contour>
  </outline>
</glyph>
<glyph name="m" format="1">
  <advance width="500"/>
  <unicode hex="006D"/>
  <outline>
    <contour>
      <point x="495" y="329" type="line"/>
      <point x="364" y="319"/>
      <point x="140" y="312"/>
      <point x="-18" y="342" type="curve"/>
      <point x="-8" y="272" type="line"/>
      <point x="505" y="291" type="line"/>
    </contour>
  </outline>
</glyph>
<glyph name="o" format="1">
  <advance width="500"/>
  <unicode hex="006F"/>
  <outline>
    <contour>
      <point x="134" y="-10" type="curve" smooth="yes"/>
      <point x="297" y="-10"/>
      <point x="492" y="258"/>
      <point x="492" y="406" type="curve" smooth="yes"/>
      <point x="492" y="474"/>
      <point x="456" y="510"/>
      <point x="386" y="510" type="curve"/>
      <point x="224" y="510"/>
      <point x="28" y="244"/>
      <point x="28" y="96" type="curve" smooth="yes"/>
      <point x="28" y="16"/>
      <point x="75" y="-10"/>
    </contour>
    <contour>
      <point x="351" y="440" type="curve"/>
      <point x="394" y="440"/>
      <point x="424" y="416"/>
      <point x="424" y="358" type="curve" smooth="yes"/>
      <point x="424" y="238"/>
      <point x="289" y="60"/>
      <point x="169" y="60" type="curve" smooth="yes"/>
      <point x="115" y="60"/>
      <point x="96" y="96"/>
      <point x="96" y="142" type="curve" smooth="yes"/>
      <point x="96" y="262"/>
      <point x="231" y="440"/>
    </contour>
  </outline>
</glyph>
<glyph name="p" format="1">
  <advance width="500"/>
  <unicode hex="0070"/>
  <outline>
    <contour>
      <point x="218" y="500" type="line"/>
      <point x="148" y="500" type="line"/>
      <point x="120" y="382"/>
      <point x="68" y="176"/>
      <point x="-127" y="-250" type="curve"/>
      <point x="-57" y="-250" type="line"/>
      <point x="45" y="30" type="line" smooth="yes"/>
      <point x="120" y="235"/>
      <point x="279" y="440"/>
      <point x="372" y="440" type="curve" smooth="yes"/>
      <point x="414" y="440"/>
      <point x="434" y="407"/>
      <point x="434" y="358" type="curve" smooth="yes"/>
      <point x="434" y="206"/>
      <point x="270" y="70"/>
      <point x="124" y="70" type="curve" smooth="yes"/>
      <point x="60" y="70" type="line"/>
      <point x="60" y="0" type="line"/>
      <point x="117" y="0" type="line" smooth="yes"/>
      <point x="316" y="0"/>
      <point x="502" y="260"/>
      <point x="502" y="404" type="curve" smooth="yes"/>
      <point x="502" y="463"/>
      <point x="474" y="510"/>
      <point x="414" y="510" type="curve" smooth="yes"/>
      <point x="323" y="510"/>
      <point x="229" y="435"/>
      <point x="120" y="244" type="curve"/>
      <point x="110" y="244" type="line"/>
    </contour>
  </outline>
</glyph>
<glyph name="q" format="1">
  <advance width="500"/>
  <unicode hex="0071"/>
  <outline>
    <contour>
      <point x="458" y="500" type="line"/>
      <point x="408" y="500" type="line" smooth="yes"/>
      <point x="200" y="500"/>
      <point x="16" y="240"/>
      <point x="16" y="96" type="curve" smooth="yes"/>
      <point x="16" y="37"/>
      <point x="44" y="-10"/>
      <point x="104" y="-10" type="curve" smooth="yes"/>
      <point x="184" y="-10"/>
      <point x="280" y="66"/>
      <point x="351" y="186" type="curve"/>
      <point x="361" y="186" type="line"/>
      <point x="166" y="-250" type="line"/>
      <point x="236" y="-250" type="line"/>
      <point x="358" y="96"/>
      <point x="494" y="414"/>
      <point x="578" y="590" type="curve"/>
      <point x="538" y="600" type="line"/>
      <point x="412" y="336" type="line" smooth="yes"/>
      <point x="325" y="155"/>
      <point x="210" y="60"/>
      <point x="146" y="60" type="curve" smooth="yes"/>
      <point x="104" y="60"/>
      <point x="84" y="93"/>
      <point x="84" y="142" type="curve" smooth="yes"/>
      <point x="84" y="288"/>
      <point x="240" y="430"/>
      <point x="378" y="430" type="curve" smooth="yes"/>
      <point x="458" y="430" type="line"/>
    </contour>
  </outline>
</glyph>
<glyph name="r" format="1">
  <advance width="500"/>
  <unicode hex="0072"/>
  <outline>
    <contour>
      <point x="85" y="0" type="line"/>
      <point x="155" y="0" type="line"/>
      <point x="248" y="164" type="line" smooth="yes"/>
      <point x="345" y="335"/>
      <point x="428" y="410"/>
      <point x="576" y="450" type="curve"/>
      <point x="540" y="510" type="line"/>
      <point x="406" y="464"/>
      <point x="352" y="386"/>
      <point x="234" y="206" type="curve"/>
      <point x="224" y="206" type="line"/>
      <point x="303" y="370" type="line" smooth="yes"/>
      <point x="312" y="388"/>
      <point x="318" y="412"/>
      <point x="318" y="435" type="curve" smooth="yes"/>
      <point x="318" y="484"/>
      <point x="291" y="510"/>
      <point x="241" y="510" type="curve" smooth="yes"/>
      <point x="177" y="510"/>
      <point x="143" y="485"/>
      <point x="105" y="438" type="curve" smooth="yes"/>
      <point x="6" y="316" type="line"/>
      <point x="34" y="296" type="line"/>
      <point x="95" y="378" type="line" smooth="yes"/>
      <point x="121" y="413"/>
      <point x="160" y="446"/>
      <point x="202" y="446" type="curve" smooth="yes"/>
      <point x="235" y="446"/>
      <point x="250" y="431"/>
      <point x="250" y="398" type="curve" smooth="yes"/>
      <point x="250" y="351"/>
      <point x="196" y="240"/>
      <point x="136" y="110" type="curve" smooth="yes"/>
    </contour>
  </outline>
</glyph>
<glyph name="s" format="1">
  <advance width="500"/>
  <unicode hex="0073"/>
  <outline>
    <contour>
      <point x="130" y="-10" type="curve" smooth="yes"/>
      <point x="244" y="-10"/>
      <point x="428" y="54"/>
      <point x="428" y="156" type="curve" smooth="yes"/>
      <point x="428" y="230"/>
      <point x="338" y="262"/>
      <point x="258" y="292" type="curve" smooth="yes"/>
      <point x="220" y="306"/>
      <point x="190" y="326"/>
      <point x="190" y="358" type="curve" smooth="yes"/>
      <point x="190" y="410"/>
      <point x="250" y="440"/>
      <point x="322" y="440" type="curve" smooth="yes"/>
      <point x="402" y="440"/>
      <point x="446" y="402"/>
      <point x="452" y="347" type="curve"/>
      <point x="512" y="383" type="line"/>
      <point x="512" y="479"/>
      <point x="429" y="510"/>
      <point x="356" y="510" type="curve" smooth="yes"/>
      <point x="266" y="510"/>
      <point x="140" y="446"/>
      <point x="140" y="346" type="curve" smooth="yes"/>
      <point x="140" y="292"/>
      <point x="183" y="261"/>
      <point x="231" y="241" type="curve" smooth="yes"/>
      <point x="300" y="212"/>
      <point x="358" y="195"/>
      <point x="358" y="150" type="curve" smooth="yes"/>
      <point x="358" y="84"/>
      <point x="265" y="40"/>
      <point x="174" y="40" type="curve" smooth="yes"/>
      <point x="112" y="40"/>
      <point x="70" y="57"/>
      <point x="70" y="98" type="curve" smooth="yes"/>
      <point x="70" y="152"/>
      <point x="154" y="194"/>
      <point x="226" y="217" type="curve"/>
      <point x="218" y="248" type="line"/>
      <point x="140" y="216"/>
      <point x="-2" y="174"/>
      <point x="-2" y="70" type="curve" smooth="yes"/>
      <point x="-2" y="14"/>
      <point x="42" y="-10"/>
    </contour>
  </outline>
</glyph>
<glyph name="t" format="1">
  <advance width="500"/>
  <unicode hex="0074"/>
  <outline>
    <contour>
      <point x="151" y="238" type="curve" smooth="yes"/>
      <point x="114" y="166"/>
      <point x="90" y="110"/>
      <point x="90" y="66" type="curve" smooth="yes"/>
      <point x="90" y="16"/>
      <point x="114" y="-10"/>
      <point x="160" y="-10" type="curve" smooth="yes"/>
      <point x="219" y="-10"/>
      <point x="273" y="42"/>
      <point x="324" y="98" type="curve" smooth="yes"/>
      <point x="466" y="252" type="line"/>
      <point x="438" y="274" type="line"/>
      <point x="312" y="130" type="line" smooth="yes"/>
      <point x="266" y="78"/>
      <point x="233" y="54"/>
      <point x="198" y="54" type="curve" smooth="yes"/>
      <point x="173" y="54"/>
      <point x="160" y="70"/>
      <point x="160" y="100" type="curve" smooth="yes"/>
      <point x="160" y="136"/>
      <point x="183" y="192"/>
      <point x="204" y="240" type="curve" smooth="yes"/>
      <point x="431" y="750" type="line"/>
      <point x="361" y="750" type="line"/>
      <point x="304" y="596"/>
      <point x="251" y="500"/>
      <point x="90" y="500" type="curve" smooth="yes"/>
      <point x="28" y="500" type="line"/>
      <point x="28" y="450" type="line"/>
      <point x="187" y="451"/>
      <point x="241" y="486"/>
      <point x="303" y="570" type="curve"/>
      <point x="313" y="570" type="line"/>
      <point x="256" y="445"/>
      <point x="233" y="397"/>
    </contour>
    <contour>
      <point x="284" y="460" type="line"/>
      <point x="535" y="460" type="line"/>
      <point x="535" y="500" type="line"/>
      <point x="284" y="500" type="line"/>
    </contour>
  </outline>
</glyph>
<glyph name="u" format="1">
  <advance width="500"/>
  <unicode hex="0075"/>
  <outline>
    <contour>
      <point x="283" y="160"/>
      <point x="248" y="96"/>
      <point x="248" y="52" type="curve" smooth="yes"/>
      <point x="248" y="10"/>
      <point x="266" y="-10"/>
      <point x="300" y="-10" type="curve" smooth="yes"/>
      <point x="334" y="-10"/>
      <point x="364" y="21"/>
      <point x="402" y="68" type="curve" smooth="yes"/>
      <point x="486" y="174" type="line"/>
      <point x="458" y="196" type="line"/>
      <point x="388" y="100" type="line" smooth="yes"/>
      <point x="370" y="76"/>
      <point x="355" y="58"/>
      <point x="336" y="58" type="curve" smooth="yes"/>
      <point x="324" y="58"/>
      <point x="314" y="64"/>
      <point x="314" y="86" type="curve" smooth="yes"/>
      <point x="314" y="116"/>
      <point x="336" y="169"/>
      <point x="370" y="232" type="curve" smooth="yes"/>
      <point x="516" y="500" type="line"/>
      <point x="446" y="500" type="line"/>
      <point x="342" y="336" type="line" smooth="yes"/>
      <point x="219" y="142"/>
      <point x="136" y="60"/>
      <point x="96" y="60" type="curve" smooth="yes"/>
      <point x="78" y="60"/>
      <point x="68" y="72"/>
      <point x="68" y="94" type="curve" smooth="yes"/>
      <point x="68" y="138"/>
      <point x="92" y="197"/>
      <point x="122" y="274" type="curve" smooth="yes"/>
      <point x="210" y="500" type="line"/>
      <point x="140" y="500" type="line"/>
      <point x="68" y="178"/>
      <point x="-2" y="132"/>
      <point x="-2" y="52" type="curve" smooth="yes"/>
      <point x="-2" y="8"/>
      <point x="22" y="-10"/>
      <point x="62" y="-10" type="curve" smooth="yes"/>
      <point x="121" y="-10"/>
      <point x="188" y="44"/>
      <point x="349" y="284" type="curve"/>
      <point x="359" y="284" type="line"/>
    </contour>
  </outline>
</glyph>
<glyph name="v" format="1">
  <advance width="500"/>
  <unicode hex="0076"/>
  <outline>
    <contour>
      <point x="154" y="298" type="curve" smooth="yes"/>
      <point x="92" y="180" type="line" smooth="yes"/>
      <point x="67" y="133"/>
      <point x="56" y="98"/>
      <point x="56" y="62" type="curve" smooth="yes"/>
      <point x="56" y="10"/>
      <point x="88" y="-10"/>
      <point x="136" y="-10" type="curve" smooth="yes"/>
      <point x="252" y="-10"/>
      <point x="345" y="49"/>
      <point x="520" y="500" type="curve"/>
      <point x="450" y="500" type="line"/>
      <point x="376" y="190"/>
      <point x="279" y="54"/>
      <point x="174" y="54" type="curve" smooth="yes"/>
      <point x="142" y="54"/>
      <point x="126" y="72"/>
      <point x="126" y="100" type="curve" smooth="yes"/>
      <point x="126" y="133"/>
      <point x="134" y="155"/>
      <point x="155" y="200" type="curve" smooth="yes"/>
      <point x="210" y="320" type="line" smooth="yes"/>
      <point x="238" y="380"/>
      <point x="262" y="414"/>
      <point x="262" y="456" type="curve" smooth="yes"/>
      <point x="262" y="492"/>
      <point x="241" y="510"/>
      <point x="210" y="510" type="curve" smooth="yes"/>
      <point x="185" y="510"/>
      <point x="157" y="500"/>
      <point x="103" y="428" type="curve" smooth="yes"/>
      <point x="25" y="324" type="line"/>
      <point x="53" y="304" type="line"/>
      <point x="100" y="372" type="line" smooth="yes"/>
      <point x="140" y="430"/>
      <point x="155" y="442"/>
      <point x="173" y="442" type="curve" smooth="yes"/>
      <point x="185" y="442"/>
      <point x="196" y="436"/>
      <point x="196" y="412" type="curve" smooth="yes"/>
      <point x="196" y="379"/>
      <point x="178" y="343"/>
    </contour>
  </outline>
</glyph>
<glyph name="w" format="1">
  <advance width="500"/>
  <unicode hex="0077"/>
  <outline>
    <contour>
      <point x="299" y="277"/>
      <point x="250" y="136"/>
      <point x="250" y="52" type="curve" smooth="yes"/>
      <point x="250" y="10"/>
      <point x="266" y="-10"/>
      <point x="300" y="-10" type="curve" smooth="yes"/>
      <point x="334" y="-10"/>
      <point x="384" y="39"/>
      <point x="506" y="234" type="curve"/>
      <point x="478" y="256" type="line"/>
      <point x="391" y="95"/>
      <point x="355" y="58"/>
      <point x="336" y="58" type="curve" smooth="yes"/>
      <point x="324" y="58"/>
      <point x="314" y="68"/>
      <point x="314" y="94" type="curve" smooth="yes"/>
      <point x="314" y="124"/>
      <point x="325" y="186"/>
      <point x="346" y="252" type="curve" smooth="yes"/>
      <point x="426" y="500" type="line"/>
      <point x="356" y="500" type="line"/>
      <point x="91" y="56" type="line"/>
      <point x="81" y="56" type="line"/>
      <point x="178" y="598" type="line"/>
      <point x="108" y="598" type="line"/>
      <point x="98" y="361"/>
      <point x="60" y="176"/>
      <point x="26" y="0" type="curve"/>
      <point x="96" y="0" type="line"/>
      <point x="196" y="128"/>
      <point x="324" y="366"/>
      <point x="349" y="420" type="curve"/>
      <point x="359" y="420" type="line"/>
    </contour>
  </outline>
</glyph>
<glyph name="x" format="1">
  <advance width="500"/>
  <unicode hex="0078"/>
  <outline>
    <contour>
      <point x="-174" y="-124" type="curve"/>
      <point x="-114" y="-160" type="line"/>
      <point x="158" y="148"/>
      <point x="365" y="318"/>
      <point x="528" y="464" type="curve"/>
      <point x="468" y="500" type="line"/>
      <point x="223" y="225"/>
      <point x="125" y="135"/>
    </contour>
    <contour>
      <point x="154" y="500" type="line"/>
      <point x="170" y="402"/>
      <point x="190" y="247"/>
      <point x="190" y="120" type="curve" smooth="yes"/>
      <point x="190" y="40"/>
      <point x="205" y="-10"/>
      <point x="264" y="-10" type="curve" smooth="yes"/>
      <point x="310" y="-10"/>
      <point x="340" y="23"/>
      <point x="386" y="80" type="curve" smooth="yes"/>
      <point x="470" y="184" type="line"/>
      <point x="442" y="204" type="line"/>
      <point x="389" y="132" type="line" smooth="yes"/>
      <point x="353" y="83"/>
      <point x="328" y="60"/>
      <point x="288" y="60" type="curve" smooth="yes"/>
      <point x="244" y="60"/>
      <point x="224.0" y="112.60606060606062"/>
      <point x="224" y="202" type="curve" smooth="yes"/>
      <point x="224" y="500" type="line"/>
    </contour>
  </outline>
</glyph>
<glyph name="y" format="1">
  <advance width="500"/>
  <unicode hex="0079"/>
  <outline>
    <contour>
      <point x="558" y="590" type="curve"/>
      <point x="518" y="600" type="line"/>
      <point x="362" y="336" type="line" smooth="yes"/>
      <point x="245" y="138"/>
      <point x="136" y="60"/>
      <point x="97" y="60" type="curve" smooth="yes"/>
      <point x="78" y="60"/>
      <point x="68" y="72"/>
      <point x="68" y="94" type="curve" smooth="yes"/>
      <point x="68" y="138"/>
      <point x="92" y="197"/>
      <point x="122" y="274" type="curve" smooth="yes"/>
      <point x="210" y="500" type="line"/>
      <point x="140" y="500" type="line"/>
      <point x="68" y="178"/>
      <point x="-2" y="132"/>
      <point x="-2" y="52" type="curve" smooth="yes"/>
      <point x="-2" y="8"/>
      <point x="22" y="-10"/>
      <point x="62" y="-10" type="curve" smooth="yes"/>
      <point x="121" y="-10"/>
      <point x="226" y="39"/>
      <point x="401" y="342" type="curve"/>
      <point x="411" y="342" type="line"/>
      <point x="146" y="-250" type="line"/>
      <point x="216" y="-250" type="line"/>
      <point x="338" y="96"/>
      <point x="475" y="414"/>
    </contour>
  </outline>
</glyph>
<glyph name="z" format="1">
  <advance width="500"/>
  <unicode hex="007A"/>
  <outline>
    <contour>
      <point x="38" y="118" type="line" smooth="yes"/>
      <point x="-2" y="87"/>
      <point x="-18" y="58"/>
      <point x="-18" y="38" type="curve" smooth="yes"/>
      <point x="-18" y="4"/>
      <point x="20" y="-10"/>
      <point x="88" y="-10" type="curve"/>
      <point x="194" y="-10"/>
      <point x="292" y="26"/>
      <point x="450" y="74" type="curve"/>
      <point x="442" y="103" type="line"/>
      <point x="294" y="50"/>
      <point x="208" y="32"/>
      <point x="134" y="32" type="curve" smooth="yes"/>
      <point x="98" y="32"/>
      <point x="92" y="46"/>
      <point x="92" y="62" type="curve" smooth="yes"/>
      <point x="92" y="75"/>
      <point x="102" y="94"/>
      <point x="134" y="122" type="curve" smooth="yes"/>
      <point x="578" y="500" type="line"/>
      <point x="160" y="500" type="line"/>
      <point x="160" y="450" type="line"/>
      <point x="462" y="450" type="line"/>
      <point x="462" y="440" type="line"/>
    </contour>
  </outline>
</glyph>
<glyph name="acute" format="1">
  <advance width="500"/>
  <unicode hex="00B4"/>
  <outline>
    <contour>
      <point x="139" y="637" type="curve"/>
      <point x="167" y="615" type="line"/>
      <point x="248" y="752"/>
      <point x="263" y="768"/>
      <point x="362" y="899" type="curve"/>
      <point x="324" y="921" type="line"/>
      <point x="239" y="781"/>
      <point x="231" y="765"/>
    </contour>
    <contour>
      <point x="250.0" y="540" type="move" name="_top"/>
    </contour>
  </outline>
</glyph>
<glyph name="ccedilla" format="1">
  <advance width="500"/>
  <unicode hex="00E7"/>
  <outline>
    <contour>
      <point x="39" y="-238" type="curve"/>
      <point x="67" y="-260" type="line"/>
      <point x="118" y="-163"/>
      <point x="133" y="-147"/>
      <point x="192" y="-76" type="curve"/>
      <point x="154" y="-54" type="line"/>
      <point x="109" y="-134"/>
      <point x="101" y="-150"/>
    </contour>
    <component base="c"/>
  </outline>
</glyph>
<glyph name="quoteright" format="1">
  <advance width="500"/>
  <unicode hex="2019"/>
  <outline>
    <contour>
      <point x="385" y="800" type="line"/>
      <point x="485" y="800" type="line"/>
      <point x="485" y="900" type="line"/>
      <point x="385" y="900" type="line"/>
    </contour>
    <contour>
      <point x="312" y="618" type="curve"/>
      <point x="340" y="596" type="line"/>
      <point x="378" y="653"/>
      <point x="416" y="709"/>
      <point x="485" y="800" type="curve"/>
      <point x="447" y="800" type="line"/>
      <point x="392" y="710"/>
      <point x="354" y="666"/>
    </contour>
  </outline>
</glyph>
<glyph name="m_m" format="1">
  <advance width="1000"/>
  <outline>
    <contour>
      <point x="995" y="329" type="line"/>
      <point x="864" y="319"/>
      <point x="140" y="312"/>
      <point x="-18" y="342" type="curve"/>
      <point x="-8" y="272" type="line"/>
      <point x="1005" y="291" type="line"/>
    </contour>
  </outline>
</glyph>
